<?xml version="1.0" standalone="no"?>
<!DOCTYPE svg PUBLIC "-//W3C//DTD SVG 20010904//EN"
 "http://www.w3.org/TR/2001/REC-SVG-20010904/DTD/svg10.dtd">
<svg version="1.0" xmlns="http://www.w3.org/2000/svg"
 width="576.000000pt" height="576.000000pt" viewBox="0 0 576.000000 576.000000"
 preserveAspectRatio="xMidYMid meet">
<metadata>
Created by potrace 1.16, written by Peter Selinger 2001-2019
</metadata>
<g transform="translate(0.000000,576.000000) scale(0.100000,-0.100000)"
fill="#000000" stroke="none">
<path d="M2795 5295 c-189 -30 -401 -116 -563 -227 -90 -62 -248 -211 -337
-317 -234 -281 -392 -652 -441 -1033 -20 -159 -15 -479 11 -648 25 -166 107
-482 121 -468 1 2 -8 40 -21 83 -34 118 -58 232 -52 255 3 11 1 20 -3 20 -4 0
-6 9 -3 20 5 19 14 20 189 20 157 0 184 -2 184 -15 0 -25 1 -29 11 -42 6 -6
14 -33 18 -60 11 -60 90 -333 103 -353 7 -11 8 -10 3 5 -28 86 -78 302 -95
405 -22 139 -40 343 -30 348 4 1 3 31 -2 65 -13 86 -1 325 27 549 22 173 91
391 185 583 218 448 542 676 958 675 311 -2 604 -121 837 -341 153 -145 257
-304 326 -498 21 -58 38 -98 38 -88 1 14 -49 446 -102 882 l-12 100 -83 -110
c-46 -60 -87 -111 -91 -113 -5 -2 -45 22 -90 52 -174 116 -357 194 -556 236
-132 28 -400 36 -530 15z"/>
<path d="M780 3214 c-17 -20 -43 -60 -58 -90 -14 -30 -32 -54 -39 -54 -7 0
-13 -4 -13 -10 0 -6 -32 -10 -75 -10 -46 0 -75 4 -75 11 0 5 3 8 8 6 4 -3 7
11 8 30 1 52 -12 19 -30 -76 -47 -244 15 -525 163 -747 22 -33 88 -107 148
-164 124 -120 210 -174 366 -229 l102 -36 185 0 c141 0 205 4 269 18 107 23
241 65 241 76 0 5 -7 14 -16 22 -24 19 -74 96 -74 112 0 7 11 19 25 25 14 6
25 18 25 26 0 27 -19 27 -44 -1 -32 -34 -39 -28 -107 83 -29 46 -54 84 -56 84
-3 0 5 -16 17 -37 17 -29 18 -38 8 -44 -22 -14 -270 -10 -364 6 -361 62 -630
264 -699 525 -19 69 -19 209 -1 277 20 75 58 154 96 196 17 20 30 37 27 37 -3
0 -19 -16 -37 -36z"/>
<path d="M3530 3206 c0 -22 7 -26 73 -40 178 -40 253 -109 267 -246 7 -60 7
-61 9 -17 0 30 5 47 14 47 8 0 7 4 -3 10 -9 6 -11 10 -3 10 7 0 10 7 7 15 -5
13 20 15 195 15 174 0 200 -2 195 -15 -4 -9 0 -15 7 -15 11 0 11 -3 -1 -10
-13 -8 -12 -10 3 -10 9 0 17 7 17 15 0 34 52 116 92 145 44 32 152 70 199 70
24 0 29 4 29 25 l0 25 -550 0 -550 0 0 -24z"/>
<path d="M2025 3212 c6 -5 46 -37 91 -70 115 -85 271 -222 399 -351 l109 -111
-29 -31 c-105 -111 -296 -255 -419 -316 -56 -27 -58 -28 -72 -9 -8 12 -14 14
-14 7 0 -19 90 -189 117 -222 l25 -29 56 45 c59 46 266 254 387 387 l70 78
165 -146 c260 -229 527 -422 662 -478 l37 -16 46 69 c62 94 129 238 158 341
31 110 40 148 29 132 -6 -9 -30 2 -93 44 -149 100 -289 215 -455 377 -99 96
-164 152 -167 145 -4 -10 -6 -10 -6 0 -1 6 -6 12 -12 12 -5 0 -7 -4 -4 -10 4
-7 -136 -10 -414 -10 -276 0 -422 4 -426 10 -4 6 -12 9 -18 8 -7 -2 -39 18
-72 43 -68 52 -165 117 -150 101z"/>
<path d="M4995 3164 c72 -118 97 -282 65 -414 -63 -267 -317 -439 -647 -441
l-113 -1 0 -228 0 -228 33 8 c201 48 327 98 448 181 226 153 410 423 465 682
16 77 19 254 5 338 -12 69 -31 142 -36 137 -2 -2 3 -30 11 -61 13 -51 13 -59
0 -72 -18 -19 -136 -21 -154 -3 -7 7 -12 8 -12 4 0 -5 -16 23 -35 62 -19 38
-42 75 -50 82 -8 7 1 -14 20 -46z"/>
</g>
</svg>
